# xmcd
#
# Track frame offsets:
#	150
#	25187
#	52870
#	66917
#	91747
#	110747
#	125865
#	138585
#	155612
#	159830
#	181392
#	200480
#	227367
#	246942
#	262807
#	280987
#	299182
#	318117
#
# Disc length: 4414 seconds
# Revision: 5
# Processed by: cddbd v1.5.2PL0 Copyright (c) Steve Scherf et al.
# Submitted via: dBpowerAMP V12.0
#
DISCID=04113c12
DTITLE=B.B. King - King of the Blues [Disc 4]
DYEAR=1992
DGENRE=Blues
TTITLE0=Let the Good Times Roll
TTITLE1=Don't You Lie to Me
TTITLE2=Mother Fuyer
TTITLE3=Never Make a Move Too Soon
TTITLE4=When It All Comes Down
TTITLE5=Better Not Look Down
TTITLE6=Caldonia
TTITLE7=There Must Be a Better World Somewhere
TTITLE8=Play With Your Poodle
TTITLE9=Darlin' You Know I Love You
TTITLE10=Inflation Blues
TTITLE11=Make Love to Me [Rehearsal]
TTITLE12=Six Silver Strings
TTITLE13=When Love Comes to Town [7" Edit and Mix]
TTITLE14=Right Time, Wrong Place
TTITLE15=Many Miles Travelled
TTITLE16=I'm Moving On
TTITLE17=Since I Met You Baby
EXTD=
EXTT0=
EXTT1=
EXTT2=
EXTT3=
EXTT4=
EXTT5=
EXTT6=
EXTT7=
EXTT8=
EXTT9=
EXTT10=
EXTT11=
EXTT12=
EXTT13=
EXTT14=
EXTT15=
EXTT16=
EXTT17=
PLAYORDER=
